<?xml version="1.0" encoding="utf-8"?>
<!-- Generator: Adobe Illustrator 23.0.3, SVG Export Plug-In . SVG Version: 6.00 Build 0)  -->
<svg version="1.1" id="Layer_1" xmlns="http://www.w3.org/2000/svg" xmlns:xlink="http://www.w3.org/1999/xlink" x="0px" y="0px"
	 viewBox="0 0 264.5 218.6" style="enable-background:new 0 0 264.5 218.6;" xml:space="preserve">
<g>
	<g>
		<path d="M21.5-790.2l6.3-0.9H29l6.9,0.9v2.4H21.5C21.5-787.8,21.5-790.2,21.5-790.2z M25.2-826.2l3.7,1.4l-7.2-0.9v-2.4h9
			l24.9,34.3v6.4h-1.9L25.2-826.2z M26.6-828l3,2.4v37.8h-3V-828z M46.4-828h14.4v2.4l-6,0.9h-1.2l-7.2-0.9V-828z M52.7-828h3v40.6
			l-3-3V-828z"/>
		<path d="M64.1-825.6v-2.4h16.8v2.4l-7.8,0.9h-1.2L64.1-825.6z M80.6-801.3L67.4-828h6.2l10.9,23.6h-2.1L93.7-828h3.1l-12.9,26.7
			H80.6z M82.8-791.1l8.4,0.9v2.4h-18v-2.4l8.4-0.9H82.8z M79.5-805.8h5.4c0,6.8,0,12.7,0.2,18h-5.8C79.5-793,79.5-798.9,79.5-805.8
			z M93.4-824.7l-6.7-0.9v-2.4h13.8v2.4l-6,0.9H93.4z"/>
	</g>
</g>
<g>
	<path d="M27.5-889.4h4.9l10.2,20.5l10.3-20.5h5.6v0.5c-3.6,0.3-3.9,0.7-3.8,4.6l0.3,13.7c0.1,4,0.3,4.5,3.9,4.8v0.5h-9.5v-0.5
		c3.4-0.3,3.5-0.8,3.5-4.8l-0.2-16.2h-0.2L42-865.6h-0.3l-9.5-19.8h-0.1L31.6-875c-0.1,1.8-0.1,3.1-0.1,4.2c0,3.7,0.4,4.8,4,5.1v0.5
		h-9.3v-0.5c2.4-0.2,3.2-0.8,3.5-2.4c0.3-1.2,0.6-3.5,0.9-7.5l0.5-7.1c0-1,0.1-1.9,0.1-2.6c0-2.7-0.7-3.3-3.6-3.6
		C27.5-888.8,27.5-889.4,27.5-889.4z"/>
	<path d="M61.5-865.7c3.4-0.2,3.7-0.8,3.7-3.9V-885c0-3-0.3-3.7-3.7-3.9v-0.5h9.4v0.5c-3.3,0.2-3.7,0.8-3.7,3.9v15.4
		c0,3,0.3,3.7,3.7,3.9v0.5h-9.4V-865.7z"/>
	<path d="M95.8-869L95.8-869l-17.9-20.4h-4.8v0.5c2.1,0.2,2.9,0.7,3.5,1.4c0.2,0.3,0.4,0.4,0.5,0.6l1.5,1.6h0l17.8,20.3H97v-2.7
		L95.8-869z"/>
	<path d="M103.1-865.7c3.4-0.2,3.7-0.8,3.7-3.9V-885c0-3-0.3-3.7-3.7-3.9v-0.5h9.4v0.5c-3.3,0.2-3.7,0.8-3.7,3.9v15.4
		c0,3,0.3,3.7,3.7,3.9v0.5h-9.4V-865.7z"/>
	<path d="M116.1-889.4h4.9l10.2,20.5l10.3-20.5h5.6v0.5c-3.6,0.3-3.9,0.7-3.8,4.6l0.3,13.7c0.1,4,0.3,4.5,3.9,4.8v0.5h-9.5v-0.5
		c3.4-0.3,3.5-0.8,3.5-4.8l-0.1-16.2h-0.1l-10.5,21.2h-0.4l-9.5-19.8h-0.1l-0.5,10.4c-0.1,1.8-0.2,3.1-0.2,4.2c0,3.7,0.4,4.8,4,5.1
		v0.5h-9.3v-0.5c2.4-0.2,3.2-0.8,3.5-2.4c0.3-1.2,0.6-3.5,0.8-7.5l0.5-7.1c0-1,0.1-1.9,0.1-2.6c0-2.7-0.7-3.3-3.6-3.6L116.1-889.4
		L116.1-889.4z"/>
	<path d="M165.5-865.7c2.2-0.3,3-0.5,3-1.5c0-1-1.2-4-2.6-7.6H157c-0.4,0.7-2.3,6-2.3,7.2c0,1.3,1,1.5,3.2,1.9v0.5h-8.8v-0.5
		c2.7-0.5,3.2-0.9,4.6-4.4l8.4-19.7l0.5-0.2l2.6,7.2c1.8,4.8,3.5,9.7,5,13.4c1.2,2.9,1.5,3.3,4.2,3.7v0.5h-8.9L165.5-865.7
		L165.5-865.7z M161.8-886.4c-1.6,3.4-3.1,7.1-4.3,10.4h8.1L161.8-886.4L161.8-886.4z"/>
	<path d="M194.8-871.2c-0.3,1.3-1.1,4.3-1.4,6h-16.8v-0.5c3.3-0.2,3.6-0.8,3.6-4.1V-885c0-3-0.3-3.7-3.7-3.9v-0.5h9.6v0.5
		c-3.5,0.2-3.9,0.8-3.9,3.9v14.7c0,4.1,0.9,4.2,4.9,4.2c2.3,0,4.2-0.5,5.1-1.4c0.5-0.7,1.4-2,2-3.7L194.8-871.2L194.8-871.2z"/>
	<path d="M196.8-865.7c3.4-0.2,3.7-0.8,3.7-3.9V-885c0-3-0.3-3.7-3.7-3.9v-0.5h9.4v0.5c-3.3,0.2-3.7,0.8-3.7,3.9v15.4
		c0,3,0.4,3.7,3.7,3.9v0.5h-9.4V-865.7z"/>
	<path d="M222.2-883.8c-0.7-2.2-1.6-5.3-5.3-5.3c-2.8,0-4.2,1.8-4.2,4.3c0,3.3,2.4,4.5,4.9,5.8c1.7,0.8,6.5,2.5,6.5,7.3
		c0,4-3.1,6.9-8,7c-1.6-0.1-2.9-0.3-3.9-0.6c-0.9-0.3-1.4-0.6-1.7-0.7c-0.3-1-0.7-3.8-0.9-6.1h0.6c0.6,2.1,2.3,6.5,6.8,6.5
		c3,0,4.8-1.6,4.8-5c0-3.9-3.2-5.2-5.2-6.4c-0.4-0.2-6-2-6-6.7c0-3.2,2.6-6.2,7.2-6.2c1.3,0,2.4,0.1,4.5,0.8
		c0.1,1.3,0.4,2.8,0.6,5.4L222.2-883.8L222.2-883.8z"/>
	<path d="M227.8-889.4h4.9l10.2,20.5l10.3-20.5h5.6v0.5c-3.6,0.3-3.9,0.7-3.8,4.6l0.3,13.7c0.1,4,0.3,4.5,3.9,4.8v0.5h-9.5v-0.5
		c3.4-0.3,3.5-0.8,3.5-4.8l-0.1-16.2h-0.1l-10.5,21.2H242l-9.5-19.8h-0.1l-0.5,10.4c-0.1,1.8-0.1,3.1-0.1,4.2c0,3.7,0.4,4.8,4,5.1
		v0.5h-9.3v-0.5c2.4-0.2,3.2-0.8,3.5-2.4c0.3-1.2,0.6-3.5,0.9-7.5l0.5-7.1c0-1,0.1-1.9,0.1-2.6c0-2.7-0.7-3.3-3.6-3.6L227.8-889.4
		L227.8-889.4z"/>
</g>
<g>
	<path d="M140.8-809H140v-5.5c0-0.3-0.1-0.5-0.2-0.7s-0.3-0.2-0.6-0.2l-1.1,0v5.5v0.8h-1.6v-0.7h0.9l0-5.7H137v-0.7l2.4,0
		c0.2,0,0.4,0,0.5,0.1c0.2,0,0.3,0.1,0.4,0.2c0.1,0.1,0.2,0.2,0.3,0.4s0.1,0.4,0.1,0.7L140.8-809L140.8-809z"/>
	<path d="M141.9-809v-0.7h2v-5.7h-2v-0.7h2.7v6.3h0.6v0.7L141.9-809L141.9-809z"/>
	<path d="M148.3-812.5l1,2.8v0.7h-2.7v-0.7h1.9l-2.4-6.3h0.8l1,2.8l0.8-2.8h0.8c-0.1,0.2-0.1,0.5-0.2,0.8c-0.1,0.3-0.2,0.6-0.3,1
		s-0.2,0.7-0.3,1S148.4-812.7,148.3-812.5z"/>
	<path d="M153.6-810c-0.1,0.1-0.1,0.2-0.2,0.3c-0.1,0.1-0.2,0.2-0.3,0.2s-0.2,0.1-0.3,0.2c-0.1,0.1-0.2,0.1-0.3,0.1l-1.9,0.8v-0.8
		l1.1-0.4l-1-6.5h0.8l0.8,6.3c0.3-0.2,0.6-0.3,0.7-0.6c0.2-0.2,0.2-0.5,0.2-0.9l-0.1-4.8h0.8l0,4.7c0,0.3,0,0.5-0.1,0.7
		C153.8-810.4,153.8-810.2,153.6-810z"/>
	<path d="M157-809v-0.7h1.4l-0.1-4.7c0-0.2,0-0.4-0.1-0.5s-0.1-0.3-0.2-0.3s-0.2-0.1-0.3-0.2c-0.1,0-0.2,0-0.3,0
		c-0.1,0-0.3,0-0.4,0.1s-0.2,0.1-0.2,0.2c-0.1,0.1-0.1,0.2-0.1,0.3s-0.1,0.2-0.1,0.3l-0.7,5.5h-0.8l0.9-6c-0.1,0-0.3-0.1-0.4-0.1
		c-0.2,0-0.3-0.1-0.5-0.1l0-0.9c0.2,0.1,0.4,0.1,0.6,0.2c0.2,0.1,0.5,0.2,0.7,0.3c0.1-0.1,0.2-0.2,0.4-0.3c0.2-0.1,0.4-0.2,0.7-0.2
		c0.1,0,0.3,0,0.4,0.1c0.2,0,0.4,0.1,0.5,0.3c0.2,0.2,0.3,0.4,0.4,0.7s0.1,0.7,0.1,1.2l0,4.9L157-809L157-809z"/>
	<path d="M161-809v-6.4h-0.7v-0.7h1.4v7H161z"/>
	<path d="M169.7-809H169v-5.5c0-0.3-0.1-0.5-0.2-0.7s-0.3-0.2-0.6-0.2l-1.1,0v5.5v0.8h-1.6v-0.7h0.9l0-5.7h-0.5v-0.7l2.4,0
		c0.2,0,0.4,0,0.5,0.1c0.2,0,0.3,0.1,0.4,0.2c0.1,0.1,0.2,0.2,0.3,0.4s0.1,0.4,0.1,0.7L169.7-809L169.7-809z"/>
	<path d="M171.6-812.2l0-3.2h-0.7v-0.7h1.4v3.8H171.6z"/>
	<path d="M173.5-809v-0.7h1.4v-4.9c0-0.3-0.1-0.5-0.1-0.6s-0.3-0.2-0.5-0.2h-0.5v-0.7h0.7c0.1,0,0.3,0,0.4,0.1
		c0.1,0,0.3,0.1,0.4,0.2c0.1,0.1,0.2,0.2,0.2,0.4c0.1,0.2,0.1,0.4,0.1,0.6v5.8H173.5z"/>
	<path d="M178.6-809v-0.7h1.4l-0.1-4.7c0-0.2,0-0.4-0.1-0.5s-0.1-0.3-0.2-0.3s-0.2-0.1-0.3-0.2s-0.2,0-0.3,0c-0.1,0-0.3,0-0.4,0.1
		s-0.2,0.1-0.2,0.2c-0.1,0.1-0.1,0.2-0.1,0.3s-0.1,0.2-0.1,0.3l-0.7,5.5h-0.8l0.9-6c-0.1,0-0.3-0.1-0.4-0.1c-0.2,0-0.3-0.1-0.5-0.1
		l0-0.9c0.2,0.1,0.4,0.1,0.6,0.2c0.2,0.1,0.5,0.2,0.7,0.3c0.1-0.1,0.2-0.2,0.4-0.3c0.2-0.1,0.4-0.2,0.7-0.2c0.1,0,0.3,0,0.4,0.1
		c0.2,0,0.4,0.1,0.5,0.3c0.2,0.2,0.3,0.4,0.4,0.7s0.1,0.7,0.1,1.2l0,4.9L178.6-809L178.6-809z"/>
	<path d="M184.7-809l-1.1-2.9l-0.6-1.7l-0.5,4.5h-0.7l0.7-5.2l-0.7-1.8h0.8l1.5,3.7l0.6-3.7h0.8l-1,4.4l1,2.6H184.7z"/>
</g>
<g>
	<path d="M142.5,41.3h-3.8c-4.6,0-7.8,1.4-9.7,4.1c-1.2,1.7-1.7,5.6-1.7,11.6v90.8h-2.9L53.2,61v66.3c0,6.7,0.7,10.8,2.1,12.4
		c2,2.2,5.1,3.3,9.3,3.3h3.8v3H31.1v-3h3.7c4.6,0,7.9-1.4,9.8-4.1c1.2-1.7,1.7-5.6,1.7-11.6V52.5c-2.8-3.3-4.9-5.4-6.3-6.5
		c-2-1.6-4.6-2.9-7.9-4c-1.5-0.5-3.8-0.7-7-0.7v-3h29.2l66,80.9V57.1c0-6.6-0.7-10.7-2.2-12.4c-2-2.2-5.1-3.3-9.3-3.3H105v-3h37.4
		V41.3z"/>
	<path d="M237.4,119.1l-9.3,27h-83v-3h3.8c2.5,0,4.9-0.6,7.3-1.8c2.2-1.1,3.5-3.2,4.1-6.3c0.2-1.1,0.3-3.8,0.3-7.9V57.1
		c0-6.9-0.7-11.1-2.1-12.6c-1.9-2.1-5.1-3.2-9.6-3.2H145v-3h83l1.2,23.6h-3.1c-0.9-4.6-1.8-7.9-2.7-9.8c-1.5-3.2-3.9-5.5-7-6.8
		c-2-0.8-5.7-1.2-11.2-1.2h-29.6v42.7h23.7c6.1,0,10.3-0.9,12.3-2.8c2.8-2.4,4.3-6.8,4.6-12.9h3v37.6h-3c-0.7-5.3-1.5-8.7-2.2-10.1
		c-2-4-6.9-6-14.7-6h-23.7v35.6c0,3.7,0,5.8,0.1,6.1c0.3,2.5,1.2,4.2,2.8,5c1.1,0.6,3.1,1,6,1h18.3c5.2,0,9.1-0.3,11.4-0.8
		c3.7-0.9,7-2.7,9.8-5.5c3.2-3.2,6.6-8.2,10.1-14.9H237.4z"/>
</g>
<g>
	<path d="M-170.2,78.9h-1.8V65.4c0-0.8-0.2-1.3-0.5-1.7s-0.8-0.5-1.5-0.4l-2.7,0v13.5v2.1h-3.8v-1.7h2.1l-0.1-13.9h-1.2v-1.7
		l5.9-0.1c0.4,0,0.8,0,1.3,0.1c0.4,0.1,0.8,0.3,1.1,0.5c0.3,0.3,0.6,0.6,0.8,1c0.2,0.4,0.3,1,0.3,1.7V78.9z"/>
	<path d="M-165.3,78.9V63.3h-1.8v-1.6h3.5v17.3H-165.3z"/>
	<path d="M-155,78.9V65.5c0-0.8-0.1-1.4-0.4-1.7s-0.8-0.5-1.4-0.5h-3.7v-1.6h4c0.4,0,0.8,0,1.2,0.1c0.4,0.1,0.8,0.3,1.1,0.5
		c0.3,0.2,0.6,0.6,0.8,1s0.3,1,0.3,1.7v13.9H-155z"/>
	<path d="M-148.6,71l0-7.8h-1.8v-1.6h3.5V71H-148.6z"/>
	<path d="M-142.2,71l0-7.8h-1.8v-1.6h3.5V71H-142.2z"/>
	<path d="M-130.4,78.9l-2.6-7.1l-1.5-4l-1.3,11.2h-1.8l1.8-12.7l-1.8-4.5h2l3.6,9.1l1.6-9.1h1.8l-2.3,10.8l2.5,6.4H-130.4z"/>
	<path d="M-121.5,78.9v-1.7h3.4l-0.2-11.5c0-0.5-0.1-1-0.2-1.3s-0.3-0.6-0.5-0.8c-0.2-0.2-0.4-0.3-0.7-0.4c-0.2-0.1-0.5-0.1-0.7-0.1
		c-0.3,0-0.6,0.1-0.9,0.2c-0.2,0.2-0.4,0.3-0.6,0.6c-0.2,0.2-0.3,0.5-0.3,0.8s-0.1,0.6-0.2,0.8l-1.7,13.4h-1.9l2.2-14.8
		c-0.3-0.1-0.6-0.2-1.1-0.3c-0.4-0.1-0.8-0.2-1.1-0.2l0.1-2.2c0.4,0.1,0.9,0.3,1.5,0.5c0.6,0.2,1.1,0.5,1.7,0.7
		c0.2-0.3,0.6-0.6,1-0.8c0.4-0.3,1-0.4,1.6-0.4c0.3,0,0.6,0.1,1.1,0.2c0.5,0.1,0.9,0.3,1.3,0.7c0.4,0.4,0.7,0.9,0.9,1.6
		c0.2,0.7,0.3,1.6,0.3,2.9l0.1,12.1H-121.5z"/>
	<path d="M-111.7,78.9V63.3h-1.8v-1.6h3.5v17.3H-111.7z"/>
	<path d="M-90.3,78.9H-92V65.4c0-0.8-0.2-1.3-0.5-1.7s-0.8-0.5-1.5-0.4l-2.7,0v13.5v2.1h-3.8v-1.7h2.1l-0.1-13.9h-1.2v-1.7l5.9-0.1
		c0.4,0,0.8,0,1.3,0.1c0.4,0.1,0.8,0.3,1.1,0.5c0.3,0.3,0.6,0.6,0.8,1c0.2,0.4,0.3,1,0.3,1.7V78.9z"/>
	<path d="M-85.4,78.9V63.3h-1.8v-1.6h3.5v17.3H-85.4z"/>
	<path d="M-80.8,78.9v-1.7h5V63.3h-4.8v-1.6h6.6v15.6h1.4v1.7H-80.8z"/>
	<path d="M-65.1,70.4l2.5,6.9v1.6h-6.6v-1.7h4.7l-5.8-15.6h1.9l2.4,6.9l1.8-6.9h1.8c-0.2,0.6-0.4,1.2-0.6,2
		c-0.2,0.8-0.5,1.5-0.8,2.3s-0.5,1.6-0.8,2.4S-64.9,69.8-65.1,70.4z"/>
	<path d="M-52.1,76.3c-0.2,0.3-0.4,0.5-0.6,0.7c-0.2,0.2-0.5,0.4-0.7,0.6c-0.3,0.2-0.5,0.3-0.8,0.5c-0.3,0.1-0.5,0.3-0.8,0.3
		l-4.8,1.8v-1.9l2.8-0.9l-2.4-15.8h2l2,15.3c0.8-0.4,1.4-0.8,1.8-1.4s0.6-1.3,0.6-2.1l-0.3-11.9h1.9l0.1,11.4c0,0.6,0,1.2-0.1,1.8
		C-51.7,75.4-51.8,75.9-52.1,76.3z"/>
	<path d="M-43.9,78.9v-1.7h3.4l-0.2-11.5c0-0.5-0.1-1-0.2-1.3s-0.3-0.6-0.5-0.8c-0.2-0.2-0.4-0.3-0.7-0.4c-0.2-0.1-0.5-0.1-0.7-0.1
		c-0.3,0-0.6,0.1-0.9,0.2c-0.2,0.2-0.4,0.3-0.6,0.6c-0.2,0.2-0.3,0.5-0.3,0.8s-0.1,0.6-0.2,0.8l-1.7,13.4h-1.9l2.2-14.8
		c-0.3-0.1-0.6-0.2-1.1-0.3c-0.4-0.1-0.8-0.2-1.1-0.2l0.1-2.2c0.4,0.1,0.9,0.3,1.5,0.5c0.6,0.2,1.1,0.5,1.7,0.7
		c0.2-0.3,0.6-0.6,1-0.8c0.4-0.3,1-0.4,1.6-0.4c0.3,0,0.6,0.1,1.1,0.2c0.5,0.1,0.9,0.3,1.3,0.7c0.4,0.4,0.7,0.9,0.9,1.6
		c0.2,0.7,0.3,1.6,0.3,2.9l0.1,12.1H-43.9z"/>
</g>
<g>
	<path d="M66.9,181.9H65v-14.4c0-0.8-0.2-1.4-0.5-1.8c-0.4-0.3-0.9-0.5-1.6-0.5l-2.9,0v14.5v2.2H56v-1.8h2.3l-0.1-14.8h-1.2v-1.8
		l6.3-0.1c0.5,0,0.9,0,1.3,0.1c0.4,0.1,0.8,0.3,1.2,0.5c0.3,0.3,0.6,0.6,0.8,1.1c0.2,0.5,0.3,1.1,0.3,1.8V181.9z"/>
	<path d="M72,181.9v-16.7h-1.9v-1.8h3.7v18.4H72z"/>
	<path d="M83.1,181.9v-14.3c0-0.8-0.2-1.4-0.5-1.8c-0.3-0.4-0.8-0.5-1.5-0.5h-4v-1.8h4.3c0.5,0,0.9,0,1.3,0.1
		c0.4,0.1,0.8,0.3,1.1,0.5c0.3,0.3,0.6,0.6,0.8,1.1c0.2,0.5,0.3,1.1,0.3,1.8v14.8H83.1z"/>
	<path d="M89.9,173.5l0-8.3H88v-1.8h3.7v10H89.9z"/>
	<path d="M96.8,173.5l0-8.3h-1.9v-1.8h3.7v10H96.8z"/>
	<path d="M109.4,181.9l-2.8-7.6l-1.6-4.3l-1.4,11.9h-1.9l1.9-13.6l-1.9-4.8h2.1l3.9,9.7l1.7-9.7h2l-2.5,11.5l2.6,6.9H109.4z"/>
	<path d="M118.9,181.9v-1.8h3.6l-0.3-12.3c0-0.6-0.1-1-0.2-1.4s-0.3-0.7-0.5-0.9c-0.2-0.2-0.4-0.4-0.7-0.4c-0.3-0.1-0.5-0.1-0.8-0.1
		c-0.4,0-0.7,0.1-0.9,0.2c-0.3,0.2-0.5,0.4-0.6,0.6c-0.2,0.2-0.3,0.5-0.4,0.8s-0.2,0.6-0.2,0.9l-1.8,14.3h-2l2.3-15.8
		c-0.3-0.1-0.7-0.2-1.1-0.3c-0.5-0.1-0.9-0.2-1.2-0.3l0.1-2.3c0.4,0.2,1,0.3,1.6,0.6c0.6,0.2,1.2,0.5,1.8,0.8
		c0.3-0.3,0.6-0.6,1.1-0.9c0.4-0.3,1-0.4,1.8-0.4c0.3,0,0.7,0.1,1.2,0.2c0.5,0.1,1,0.4,1.4,0.7c0.4,0.4,0.8,1,1,1.7
		c0.2,0.7,0.3,1.8,0.3,3.1l0.1,13H118.9z"/>
	<path d="M129.4,181.9v-16.7h-1.9v-1.8h3.7v18.4H129.4z"/>
	<path d="M152.3,181.9h-1.9v-14.4c0-0.8-0.2-1.4-0.5-1.8c-0.4-0.3-0.9-0.5-1.6-0.5l-2.9,0v14.5v2.2h-4.1v-1.8h2.3l-0.1-14.8h-1.2
		v-1.8l6.3-0.1c0.5,0,0.9,0,1.3,0.1c0.4,0.1,0.8,0.3,1.2,0.5c0.3,0.3,0.6,0.6,0.8,1.1c0.2,0.5,0.3,1.1,0.3,1.8V181.9z"/>
	<path d="M157.4,181.9v-16.7h-1.9v-1.8h3.7v18.4H157.4z"/>
	<path d="M162.4,181.9v-1.8h5.3v-14.9h-5.2v-1.8h7.1v16.6h1.5v1.8H162.4z"/>
	<path d="M179.1,172.8l2.7,7.4v1.7h-7.1v-1.8h5.1l-6.2-16.6h2.1l2.6,7.4l2-7.4h2c-0.2,0.6-0.4,1.3-0.6,2.1c-0.3,0.8-0.5,1.6-0.8,2.5
		c-0.3,0.9-0.6,1.7-0.9,2.5C179.6,171.4,179.3,172.1,179.1,172.8z"/>
	<path d="M193,179.1c-0.2,0.3-0.4,0.5-0.6,0.8c-0.2,0.2-0.5,0.4-0.8,0.6c-0.3,0.2-0.6,0.4-0.9,0.5c-0.3,0.2-0.6,0.3-0.9,0.4l-5.1,2
		v-2l3-1l-2.6-16.9h2.1l2.1,16.4c0.9-0.4,1.5-0.9,1.9-1.5c0.4-0.6,0.6-1.3,0.6-2.3l-0.3-12.7h2.1l0.1,12.2c0,0.7,0,1.3-0.1,1.9
		C193.5,178.1,193.3,178.7,193,179.1z"/>
	<path d="M201.7,181.9v-1.8h3.6l-0.3-12.3c0-0.6-0.1-1-0.2-1.4c-0.1-0.4-0.3-0.7-0.5-0.9c-0.2-0.2-0.4-0.4-0.7-0.4
		c-0.3-0.1-0.5-0.1-0.8-0.1c-0.4,0-0.7,0.1-0.9,0.2c-0.3,0.2-0.5,0.4-0.6,0.6c-0.2,0.2-0.3,0.5-0.4,0.8c-0.1,0.3-0.2,0.6-0.2,0.9
		l-1.8,14.3h-2l2.3-15.8c-0.3-0.1-0.7-0.2-1.1-0.3c-0.5-0.1-0.9-0.2-1.2-0.3l0.1-2.3c0.4,0.2,1,0.3,1.6,0.6c0.6,0.2,1.2,0.5,1.8,0.8
		c0.3-0.3,0.6-0.6,1.1-0.9c0.4-0.3,1-0.4,1.8-0.4c0.3,0,0.7,0.1,1.2,0.2c0.5,0.1,1,0.4,1.4,0.7c0.4,0.4,0.8,1,1,1.7
		c0.2,0.7,0.3,1.8,0.3,3.1l0.1,13H201.7z"/>
</g>
</svg>
