<?xml version="1.0" encoding="utf-8"?>
<!-- Generator: Adobe Illustrator 23.0.3, SVG Export Plug-In . SVG Version: 6.00 Build 0)  -->
<svg version="1.1" id="Layer_1" xmlns="http://www.w3.org/2000/svg" xmlns:xlink="http://www.w3.org/1999/xlink" x="0px" y="0px"
	 viewBox="0 0 595.28 841.89" style="enable-background:new 0 0 595.28 841.89;" xml:space="preserve">
<g>
	<path d="M193.94,296.82v-6.51h45.54v6.51l-21.14,2.44h-3.25L193.94,296.82z M218.34,390.33l21.14,2.44v6.5h-45.54v-6.5l21.14-2.44
		H218.34z M209.39,340.73c0-16.75,0-33.66-0.49-50.42h15.61c-0.49,16.43-0.49,33.34-0.49,50.42v4.88c0,20,0,36.92,0.49,53.67h-15.61
		c0.49-16.43,0.49-33.34,0.49-50.41V340.73z M216.71,347.24v-7.48h68.3v7.48H216.71z M262.25,296.82v-6.51h45.54v6.51l-21.14,2.44
		h-3.25L262.25,296.82z M286.64,390.33l21.14,2.44v6.5h-45.54v-6.5l21.14-2.44H286.64z M277.7,340.73c0-16.75,0-33.66-0.49-50.42
		h15.61c-0.49,16.43-0.49,33.34-0.49,50.42v8.13c0,16.75,0,33.66,0.49,50.41h-15.61c0.49-16.43,0.49-33.34,0.49-53.67V340.73z"/>
	<path d="M317.54,296.82v-6.51h45.54v6.51l-21.14,2.44h-3.25L317.54,296.82z M362.26,362.69l-35.62-72.37h16.91l29.6,64.08h-5.69
		l30.41-64.08h8.29l-34.96,72.37H362.26z M368.44,390.33l22.77,2.44v6.5h-48.79v-6.5l22.77-2.44H368.44z M359.49,350.49h14.64
		c0,18.54,0,34.31,0.49,48.79h-15.61C359.49,385.13,359.49,369.19,359.49,350.49z M397.06,299.26l-18.05-2.44v-6.51h37.4v6.51
		l-16.26,2.44H397.06z"/>
</g>
<g>
	<g>
		<path d="M-248.54,460.78l6.3-0.9h1.2l6.9,0.9v2.4h-14.4V460.78z M-244.76,424.84l3.72,1.44l-7.2-0.9v-2.4h9l24.9,34.26v6.36h-1.92
			L-244.76,424.84z M-243.44,422.98l3,2.4v37.8h-3V422.98z M-223.64,422.98h14.4v2.4l-6,0.9h-1.2l-7.2-0.9V422.98z M-217.34,422.98
			h3v40.62l-3-3V422.98z"/>
		<path d="M-205.94,425.38v-2.4h16.8v2.4l-7.8,0.9h-1.2L-205.94,425.38z M-189.44,449.68l-13.14-26.7h6.24l10.92,23.64h-2.1
			l11.22-23.64h3.06l-12.9,26.7H-189.44z M-187.16,459.88l8.4,0.9v2.4h-18v-2.4l8.4-0.9H-187.16z M-190.46,445.18h5.4
			c0,6.84,0,12.66,0.18,18h-5.76C-190.46,457.96-190.46,452.08-190.46,445.18z M-176.6,426.28l-6.66-0.9v-2.4h13.8v2.4l-6,0.9
			H-176.6z"/>
	</g>
</g>
<g>
	<path d="M240.07,440.71h-1.94v-14.91c0-0.87-0.18-1.48-0.55-1.83c-0.37-0.35-0.91-0.51-1.62-0.49l-3.01,0.03v14.94v2.27h-4.21
		v-1.85h2.36l-0.09-15.3h-1.28v-1.88l6.55-0.06c0.48,0,0.94,0.05,1.38,0.15c0.45,0.1,0.85,0.29,1.21,0.57
		c0.36,0.28,0.65,0.66,0.87,1.14c0.22,0.49,0.33,1.12,0.33,1.89V440.71z"/>
	<path d="M243.3,440.71v-1.85h5.49v-15.39h-5.34v-1.82h7.31v17.21h1.54v1.85H243.3z"/>
	<path d="M260.61,431.3l2.75,7.66v1.76h-7.31v-1.85h5.24l-6.38-17.21h2.14l2.66,7.64l2.02-7.64h2.02c-0.17,0.62-0.4,1.35-0.66,2.18
		c-0.27,0.84-0.55,1.7-0.85,2.59c-0.3,0.89-0.59,1.77-0.88,2.62C261.08,429.91,260.83,430.65,260.61,431.3z"/>
	<path d="M274.99,437.88c-0.18,0.28-0.4,0.54-0.65,0.78c-0.25,0.24-0.52,0.46-0.82,0.65c-0.3,0.2-0.6,0.38-0.91,0.54
		c-0.31,0.16-0.61,0.29-0.89,0.39l-5.27,2.02v-2.08l3.1-1.05l-2.65-17.47h2.17l2.18,16.95c0.89-0.4,1.55-0.91,1.98-1.52
		c0.43-0.62,0.63-1.4,0.61-2.34l-0.31-13.09h2.13l0.06,12.62c0.02,0.69-0.03,1.34-0.14,1.96
		C275.48,436.85,275.28,437.4,274.99,437.88z"/>
	<path d="M284,440.71v-1.85h3.76l-0.26-12.67c0-0.58-0.07-1.06-0.21-1.44c-0.14-0.38-0.32-0.68-0.54-0.89
		c-0.22-0.22-0.46-0.37-0.73-0.44c-0.27-0.08-0.53-0.12-0.79-0.12c-0.38,0-0.7,0.08-0.97,0.25c-0.27,0.17-0.48,0.38-0.65,0.64
		c-0.17,0.26-0.3,0.54-0.39,0.85s-0.15,0.61-0.2,0.9l-1.85,14.76h-2.08l2.39-16.3c-0.3-0.1-0.69-0.2-1.18-0.3
		c-0.49-0.1-0.91-0.19-1.27-0.27l0.12-2.42c0.46,0.15,1,0.35,1.64,0.59c0.64,0.24,1.24,0.5,1.83,0.78c0.27-0.34,0.64-0.65,1.1-0.93
		c0.46-0.28,1.07-0.41,1.81-0.41c0.28,0,0.69,0.06,1.21,0.18c0.53,0.12,1,0.37,1.42,0.74c0.46,0.42,0.79,1,1.01,1.76
		c0.22,0.76,0.33,1.82,0.33,3.19l0.06,13.39H284z"/>
	<path d="M294.82,440.71v-17.24h-1.97v-1.82h3.87v19.06H294.82z"/>
	<path d="M318.47,440.71h-1.94v-14.91c0-0.87-0.18-1.48-0.55-1.83c-0.37-0.35-0.91-0.51-1.62-0.49l-3.01,0.03v14.94v2.27h-4.21
		v-1.85h2.36l-0.09-15.3h-1.28v-1.88l6.55-0.06c0.48,0,0.94,0.05,1.38,0.15c0.45,0.1,0.85,0.29,1.21,0.57
		c0.36,0.28,0.65,0.66,0.87,1.14c0.22,0.49,0.33,1.12,0.33,1.89V440.71z"/>
	<path d="M323.64,432.04l0.03-8.56h-1.97v-1.82h3.87v10.38H323.64z"/>
	<path d="M328.74,440.71v-1.85h3.67v-13.35c0-0.7-0.12-1.21-0.37-1.54c-0.25-0.33-0.69-0.49-1.33-0.49h-1.34v-1.82h1.99
		c0.42,0,0.81,0.06,1.16,0.17c0.36,0.11,0.67,0.3,0.94,0.57c0.27,0.27,0.48,0.62,0.64,1.07c0.16,0.45,0.24,1,0.24,1.66v15.59H328.74
		z"/>
	<path d="M342.54,440.71v-1.85h3.76l-0.26-12.67c0-0.58-0.07-1.06-0.21-1.44c-0.14-0.38-0.32-0.68-0.54-0.89
		c-0.22-0.22-0.46-0.37-0.73-0.44c-0.27-0.08-0.53-0.12-0.79-0.12c-0.38,0-0.7,0.08-0.97,0.25c-0.27,0.17-0.48,0.38-0.65,0.64
		c-0.17,0.26-0.3,0.54-0.39,0.85s-0.15,0.61-0.2,0.9l-1.85,14.76h-2.08l2.39-16.3c-0.3-0.1-0.69-0.2-1.18-0.3
		c-0.49-0.1-0.91-0.19-1.27-0.27l0.12-2.42c0.46,0.15,1,0.35,1.64,0.59c0.64,0.24,1.24,0.5,1.83,0.78c0.27-0.34,0.64-0.65,1.1-0.93
		c0.46-0.28,1.07-0.41,1.81-0.41c0.28,0,0.69,0.06,1.21,0.18c0.53,0.12,1,0.37,1.42,0.74c0.46,0.42,0.79,1,1.01,1.76
		c0.22,0.76,0.33,1.82,0.33,3.19l0.06,13.39H342.54z"/>
	<path d="M359.24,440.71l-2.93-7.88l-1.65-4.47l-1.43,12.35h-1.94l1.99-14.05l-1.99-5.01h2.21l4.02,10.06l1.73-10.06h2.02
		l-2.59,11.94l2.71,7.12H359.24z"/>
</g>
<g>
	<path d="M234.56-100.67h4.91l10.21,20.49l10.25-20.49h5.57v0.54c-3.6,0.35-3.94,0.73-3.79,4.6l0.27,13.73
		c0.12,3.98,0.27,4.48,3.91,4.79v0.54h-9.47v-0.54c3.4-0.27,3.52-0.77,3.48-4.79l-0.15-16.24h-0.15L249.1-76.89h-0.35l-9.51-19.83
		h-0.08l-0.5,10.44c-0.12,1.82-0.15,3.13-0.15,4.18c0,3.71,0.39,4.76,3.98,5.1v0.54h-9.32v-0.54c2.4-0.19,3.21-0.85,3.52-2.4
		c0.27-1.16,0.58-3.48,0.85-7.46l0.54-7.08c0.04-1.04,0.08-1.89,0.08-2.59c0-2.75-0.66-3.25-3.6-3.6V-100.67z"/>
	<path d="M268.51-77.01c3.36-0.15,3.67-0.81,3.67-3.87v-15.39c0-3.02-0.31-3.67-3.67-3.87v-0.54h9.36v0.54
		c-3.32,0.19-3.67,0.85-3.67,3.87v15.39c0,3.05,0.35,3.71,3.67,3.87v0.54h-9.36V-77.01z"/>
	<path d="M302.89-80.26h-0.04l-17.86-20.41h-4.76v0.54c2.05,0.23,2.86,0.66,3.52,1.43c0.21,0.26,0.37,0.42,0.5,0.62l1.54,1.59h0.01
		l17.82,20.3h0.43v-2.69L302.89-80.26z"/>
	<path d="M310.11-77.01c3.36-0.15,3.67-0.81,3.67-3.87v-15.39c0-3.02-0.31-3.67-3.67-3.87v-0.54h9.36v0.54
		c-3.32,0.19-3.67,0.85-3.67,3.87v15.39c0,3.05,0.35,3.71,3.67,3.87v0.54h-9.36V-77.01z"/>
	<path d="M323.1-100.67h4.91l10.21,20.49l10.25-20.49h5.57v0.54c-3.6,0.35-3.94,0.73-3.79,4.6l0.27,13.73
		c0.12,3.98,0.27,4.48,3.91,4.79v0.54h-9.47v-0.54c3.4-0.27,3.52-0.77,3.48-4.79l-0.15-16.24h-0.15l-10.48,21.15h-0.35l-9.51-19.83
		h-0.08l-0.5,10.44c-0.12,1.82-0.15,3.13-0.15,4.18c0,3.71,0.39,4.76,3.98,5.1v0.54h-9.32v-0.54c2.4-0.19,3.21-0.85,3.52-2.4
		c0.27-1.16,0.58-3.48,0.85-7.46l0.54-7.08c0.04-1.04,0.08-1.89,0.08-2.59c0-2.75-0.66-3.25-3.6-3.6V-100.67z"/>
	<path d="M372.59-77.01c2.2-0.31,3.02-0.54,3.02-1.47c0-1.01-1.16-4.02-2.59-7.58h-8.93c-0.39,0.73-2.32,5.95-2.32,7.15
		c0,1.31,1.04,1.55,3.21,1.89v0.54h-8.78v-0.54c2.71-0.54,3.21-0.89,4.64-4.37l8.39-19.68l0.46-0.19l2.59,7.15
		c1.78,4.83,3.52,9.67,4.99,13.38c1.16,2.86,1.47,3.29,4.18,3.71v0.54h-8.85V-77.01z M368.84-97.65c-1.55,3.44-3.05,7.11-4.29,10.36
		h8.12l-3.75-10.36H368.84z"/>
	<path d="M401.83-82.5c-0.27,1.28-1.12,4.33-1.39,6.03h-16.82v-0.54c3.29-0.15,3.56-0.81,3.56-4.06v-15.19
		c0-3.02-0.27-3.67-3.71-3.87v-0.54h9.59v0.54c-3.52,0.19-3.87,0.85-3.87,3.87v14.65c0,4.1,0.93,4.21,4.87,4.21
		c2.32,0,4.18-0.46,5.06-1.39c0.5-0.7,1.39-2.01,2.01-3.71H401.83z"/>
	<path d="M403.84-77.01c3.36-0.15,3.67-0.81,3.67-3.87v-15.39c0-3.02-0.31-3.67-3.67-3.87v-0.54h9.36v0.54
		c-3.32,0.19-3.67,0.85-3.67,3.87v15.39c0,3.05,0.35,3.71,3.67,3.87v0.54h-9.36V-77.01z"/>
	<path d="M429.28-95.06c-0.66-2.24-1.59-5.3-5.34-5.3c-2.78,0-4.18,1.82-4.18,4.33c0,3.25,2.36,4.52,4.87,5.8
		c1.7,0.85,6.46,2.51,6.46,7.35c0,4.02-3.09,6.92-7.96,7c-1.59-0.08-2.94-0.31-3.9-0.62c-0.93-0.31-1.43-0.58-1.66-0.73
		c-0.31-1.01-0.7-3.79-0.93-6.11h0.62c0.62,2.09,2.28,6.46,6.8,6.46c2.98,0,4.79-1.62,4.79-5.03c0-3.91-3.17-5.22-5.22-6.38
		c-0.35-0.19-6.03-2.01-6.03-6.73c0-3.21,2.63-6.22,7.19-6.22c1.28,0,2.4,0.12,4.52,0.81c0.15,1.31,0.35,2.75,0.62,5.37H429.28z"/>
	<path d="M434.81-100.67h4.91l10.21,20.49l10.25-20.49h5.57v0.54c-3.6,0.35-3.94,0.73-3.79,4.6l0.27,13.73
		c0.12,3.98,0.27,4.48,3.91,4.79v0.54h-9.47v-0.54c3.4-0.27,3.52-0.77,3.48-4.79l-0.15-16.24h-0.15l-10.48,21.15H449l-9.51-19.83
		h-0.08l-0.5,10.44c-0.12,1.82-0.15,3.13-0.15,4.18c0,3.71,0.39,4.76,3.98,5.1v0.54h-9.32v-0.54c2.4-0.19,3.21-0.85,3.52-2.4
		c0.27-1.16,0.58-3.48,0.85-7.46l0.54-7.08c0.04-1.04,0.08-1.89,0.08-2.59c0-2.75-0.66-3.25-3.6-3.6V-100.67z"/>
</g>
<g>
	<path d="M-142.74,430.78h-0.71v-5.5c0-0.32-0.07-0.55-0.2-0.68s-0.33-0.19-0.6-0.18l-1.11,0.01v5.51v0.84h-1.55v-0.68h0.87
		l-0.03-5.64h-0.47v-0.69l2.42-0.02c0.18,0,0.35,0.02,0.51,0.06s0.31,0.11,0.45,0.21s0.24,0.24,0.32,0.42
		c0.08,0.18,0.12,0.41,0.12,0.7V430.78z"/>
	<path d="M-141.55,430.78v-0.68h2.02v-5.68h-1.97v-0.67h2.7v6.35h0.57v0.68H-141.55z"/>
	<path d="M-135.16,427.3l1.02,2.83v0.65h-2.7v-0.68h1.93l-2.35-6.35h0.79l0.98,2.82l0.75-2.82h0.75c-0.06,0.23-0.15,0.5-0.24,0.81
		c-0.1,0.31-0.2,0.63-0.31,0.96s-0.22,0.65-0.33,0.97C-134.99,426.79-135.08,427.07-135.16,427.3z"/>
	<path d="M-129.86,429.73c-0.07,0.1-0.15,0.2-0.24,0.29c-0.09,0.09-0.19,0.17-0.3,0.24c-0.11,0.07-0.22,0.14-0.34,0.2
		c-0.11,0.06-0.22,0.11-0.33,0.14l-1.94,0.75v-0.77l1.14-0.39l-0.98-6.45h0.8l0.81,6.25c0.33-0.15,0.57-0.33,0.73-0.56
		c0.16-0.23,0.23-0.51,0.23-0.86l-0.11-4.83h0.78l0.02,4.66c0.01,0.25-0.01,0.49-0.05,0.72
		C-129.67,429.35-129.75,429.55-129.86,429.73z"/>
	<path d="M-126.53,430.78v-0.68h1.39l-0.1-4.67c0-0.21-0.03-0.39-0.08-0.53c-0.05-0.14-0.12-0.25-0.2-0.33
		c-0.08-0.08-0.17-0.13-0.27-0.16c-0.1-0.03-0.2-0.04-0.29-0.04c-0.14,0-0.26,0.03-0.36,0.09c-0.1,0.06-0.18,0.14-0.24,0.24
		c-0.06,0.1-0.11,0.2-0.14,0.31c-0.03,0.12-0.06,0.23-0.08,0.33l-0.68,5.45h-0.77l0.88-6.02c-0.11-0.04-0.26-0.07-0.44-0.11
		s-0.33-0.07-0.47-0.1l0.04-0.89c0.17,0.06,0.37,0.13,0.6,0.22c0.23,0.09,0.46,0.18,0.67,0.29c0.1-0.13,0.24-0.24,0.41-0.34
		c0.17-0.1,0.39-0.15,0.67-0.15c0.1,0,0.25,0.02,0.45,0.07c0.2,0.04,0.37,0.14,0.52,0.27c0.17,0.15,0.29,0.37,0.37,0.65
		c0.08,0.28,0.12,0.67,0.12,1.18l0.02,4.94H-126.53z"/>
	<path d="M-122.54,430.78v-6.36h-0.73v-0.67h1.43v7.03H-122.54z"/>
	<path d="M-113.81,430.78h-0.71v-5.5c0-0.32-0.07-0.55-0.2-0.68s-0.33-0.19-0.6-0.18l-1.11,0.01v5.51v0.84h-1.55v-0.68h0.87
		l-0.03-5.64h-0.47v-0.69l2.42-0.02c0.18,0,0.35,0.02,0.51,0.06s0.31,0.11,0.45,0.21s0.24,0.24,0.32,0.42
		c0.08,0.18,0.12,0.41,0.12,0.7V430.78z"/>
	<path d="M-111.91,427.58l0.01-3.16h-0.73v-0.67h1.43v3.83H-111.91z"/>
	<path d="M-110.03,430.78v-0.68h1.35v-4.93c0-0.26-0.05-0.45-0.14-0.57c-0.09-0.12-0.26-0.18-0.49-0.18h-0.49v-0.67h0.74
		c0.15,0,0.3,0.02,0.43,0.06s0.25,0.11,0.35,0.21c0.1,0.1,0.18,0.23,0.24,0.4c0.06,0.17,0.09,0.37,0.09,0.61v5.75H-110.03z"/>
	<path d="M-104.93,430.78v-0.68h1.39l-0.1-4.67c0-0.21-0.03-0.39-0.08-0.53c-0.05-0.14-0.12-0.25-0.2-0.33
		c-0.08-0.08-0.17-0.13-0.27-0.16c-0.1-0.03-0.2-0.04-0.29-0.04c-0.14,0-0.26,0.03-0.36,0.09c-0.1,0.06-0.18,0.14-0.24,0.24
		c-0.06,0.1-0.11,0.2-0.14,0.31c-0.03,0.12-0.06,0.23-0.08,0.33l-0.68,5.45h-0.77l0.88-6.02c-0.11-0.04-0.26-0.07-0.44-0.11
		s-0.33-0.07-0.47-0.1l0.04-0.89c0.17,0.06,0.37,0.13,0.6,0.22c0.23,0.09,0.46,0.18,0.67,0.29c0.1-0.13,0.24-0.24,0.41-0.34
		c0.17-0.1,0.39-0.15,0.67-0.15c0.1,0,0.25,0.02,0.45,0.07c0.2,0.04,0.37,0.14,0.52,0.27c0.17,0.15,0.29,0.37,0.37,0.65
		c0.08,0.28,0.12,0.67,0.12,1.18l0.02,4.94H-104.93z"/>
	<path d="M-98.77,430.78l-1.08-2.91l-0.61-1.65l-0.53,4.55h-0.71l0.74-5.18l-0.74-1.85h0.82l1.48,3.71l0.64-3.71h0.75l-0.96,4.4
		l1,2.63H-98.77z"/>
</g>
</svg>
